<?xml version="1.0" encoding="utf-8"?>
<!-- Generator: Adobe Illustrator 25.1.0, SVG Export Plug-In . SVG Version: 6.00 Build 0)  -->
<svg version="1.1" id="Layer_1" xmlns="http://www.w3.org/2000/svg" xmlns:xlink="http://www.w3.org/1999/xlink" x="0px" y="0px"
	 viewBox="0 0 150 177" style="enable-background:new 0 0 150 177;" xml:space="preserve">
<style type="text/css">
	.st0{fill:url(#SVGID_1_);}
	.st1{fill:url(#SVGID_2_);}
	.st2{fill:url(#SVGID_3_);}
	.st3{fill:url(#SVGID_4_);}
	.st4{fill:url(#SVGID_5_);}
	.st5{fill:url(#SVGID_6_);}
	.st6{fill:url(#SVGID_7_);}
	.st7{fill:url(#SVGID_8_);}
	.st8{fill:url(#SVGID_9_);}
	.st9{fill:url(#SVGID_10_);}
	.st10{fill:url(#SVGID_11_);}
	.st11{fill:url(#SVGID_12_);}
	.st12{fill:url(#SVGID_13_);}
	.st13{fill:url(#SVGID_14_);}
	.st14{fill:url(#SVGID_15_);}
	.st15{fill:url(#SVGID_16_);}
	.st16{fill:url(#SVGID_17_);}
	.st17{fill:url(#SVGID_18_);}
	.st18{fill:url(#SVGID_19_);}
	.st19{fill:url(#SVGID_20_);}
	.st20{fill:url(#SVGID_21_);}
	.st21{fill:url(#SVGID_22_);}
	.st22{fill:url(#SVGID_23_);}
	.st23{fill:url(#SVGID_24_);}
	.st24{fill:url(#SVGID_25_);}
	.st25{fill:url(#SVGID_26_);}
	.st26{fill:url(#SVGID_27_);}
	.st27{fill:url(#SVGID_28_);}
	.st28{fill:url(#SVGID_29_);}
</style>
<g id="Layer_2_1_">
	<g id="Layer_1-2">
		<linearGradient id="SVGID_1_" gradientUnits="userSpaceOnUse" x1="87.0144" y1="25.37" x2="113.4655" y2="25.37">
			<stop  offset="0" style="stop-color:#F4AC9C"/>
			<stop  offset="1" style="stop-color:#FFF1CF;stop-opacity:0.3"/>
		</linearGradient>
		<path class="st0" d="M97.1,37.5c1.4-1.4,1.4-3.7,0-5.1c0,0,0,0,0,0c-0.1-0.1-0.2-0.1-0.2-0.2L107.1,22c0.1,0.1,0.1,0.1,0.2,0.2
			c1.4,1.4,3.7,1.4,5.1,0c1.4-1.4,1.4-3.7,0-5.1c-0.8-0.8-1.9-1.2-3-1.1c0.2-2-1.2-3.7-3.2-3.9c-1.1-0.1-2.2,0.3-2.9,1
			c-1.4,1.4-1.4,3.7,0,5.1c0,0,0,0,0,0L93.2,28.5c-1.4-1.4-3.7-1.4-5.1,0s-1.4,3.7,0,5.1c0.8,0.8,1.8,1.1,2.9,1
			c-0.2,2,1.2,3.7,3.2,3.9C95.3,38.7,96.4,38.3,97.1,37.5L97.1,37.5z"/>
		<linearGradient id="SVGID_2_" gradientUnits="userSpaceOnUse" x1="39.2899" y1="29.5986" x2="65.0153" y2="29.5986">
			<stop  offset="0" style="stop-color:#F4AC9C"/>
			<stop  offset="1" style="stop-color:#FFF1CF;stop-opacity:0.3"/>
		</linearGradient>
		<path class="st1" d="M65,32.7c0.2,2.1-1,4.1-3,4.9c-3.1,1.5-4.8-1.6-9.8-1.2c-4.7,0.4-5.8,2.7-8.7,1.8c-2.7-0.9-4.2-2.4-4.2-5.5
			c0-3.4,4-4,6.1-7.9c1.4-2.5,4.1-4.1,7.1-4.2c3.1,0.1,5.9,1.8,7.3,4.6C61.5,29.4,65.1,29.4,65,32.7z"/>
		<linearGradient id="SVGID_3_" gradientUnits="userSpaceOnUse" x1="41.4735" y1="13.2601" x2="51.33" y2="13.2601">
			<stop  offset="0" style="stop-color:#F4AC9C"/>
			<stop  offset="1" style="stop-color:#FFF1CF;stop-opacity:0.3"/>
		</linearGradient>
		<path class="st2" d="M45.3,6.5c2.7-0.4,5.3,2.3,5.9,6c0.6,3.7-1.1,7.1-3.7,7.5s-5.3-2.3-5.9-6C41,10.3,42.7,6.9,45.3,6.5z"/>
		<linearGradient id="SVGID_4_" gradientUnits="userSpaceOnUse" x1="34.8995" y1="21.5954" x2="42.8673" y2="21.5954">
			<stop  offset="0" style="stop-color:#F4AC9C"/>
			<stop  offset="1" style="stop-color:#FFF1CF;stop-opacity:0.3"/>
		</linearGradient>
		<path class="st3" d="M37.3,16c2-0.6,4.4,1.5,5.2,4.6s-0.1,6.1-2.1,6.6c-2,0.6-4.4-1.5-5.2-4.6S35.3,16.6,37.3,16z"/>
		<linearGradient id="SVGID_5_" gradientUnits="userSpaceOnUse" x1="52.9987" y1="13.0805" x2="62.8611" y2="13.0805">
			<stop  offset="0" style="stop-color:#F4AC9C"/>
			<stop  offset="1" style="stop-color:#FFF1CF;stop-opacity:0.3"/>
		</linearGradient>
		<path class="st4" d="M53.1,12.4c0.6-3.8,3.2-6.5,5.9-6.1c2.7,0.4,4.4,3.8,3.8,7.5c-0.6,3.8-3.2,6.5-5.9,6.1
			C54.2,19.5,52.5,16.1,53.1,12.4z"/>
		<linearGradient id="SVGID_6_" gradientUnits="userSpaceOnUse" x1="61.8537" y1="21.5968" x2="70.6324" y2="21.5968">
			<stop  offset="0" style="stop-color:#F4AC9C"/>
			<stop  offset="1" style="stop-color:#FFF1CF;stop-opacity:0.3"/>
		</linearGradient>
		<path class="st5" d="M63,19.7c1.6-2.8,4.4-4.2,6.2-3.1s2,4.2,0.4,6.9s-4.4,4.2-6.2,3.1S61.3,22.5,63,19.7z"/>
		<linearGradient id="SVGID_7_" gradientUnits="userSpaceOnUse" x1="9.1486" y1="46.9363" x2="25.2483" y2="46.9363">
			<stop  offset="0" style="stop-color:#F4AC9C"/>
			<stop  offset="1" style="stop-color:#FFF1CF;stop-opacity:0.3"/>
		</linearGradient>
		<path class="st6" d="M25.2,43.1c-0.4-2.8-2.3-4.8-4.8-4.1c-2,0.6-3.4,2.4-3.4,4.5c-1-1.8-3.1-2.7-5.2-2.3c-2.5,0.7-3.3,3.3-2.2,6
			c1.4,3.4,10.1,7.7,10.1,7.7L20,55l0.2-0.3C20.2,54.7,25.8,47.3,25.2,43.1z"/>
		<linearGradient id="SVGID_8_" gradientUnits="userSpaceOnUse" x1="34.863" y1="82.7918" x2="72.4401" y2="82.7918">
			<stop  offset="0" style="stop-color:#F4AC9C"/>
			<stop  offset="1" style="stop-color:#FFF1CF;stop-opacity:0.3"/>
		</linearGradient>
		<path class="st7" d="M70.9,87.3c-2-2-5.2-2-7.2,0c-0.1,0.1-0.2,0.2-0.2,0.3L48.9,73c0.1-0.1,0.2-0.2,0.3-0.2c2-2,2-5.2,0.1-7.3
			c-2-2-5.2-2-7.3-0.1c-1.1,1.1-1.7,2.6-1.5,4.2c-2.8-0.3-5.3,1.8-5.6,4.6c-0.3,2.8,1.8,5.3,4.6,5.6c1.5,0.1,3-0.4,4.1-1.5
			l14.5,14.5c-2,2-2.1,5.2-0.1,7.3c2,2,5.2,2.1,7.3,0.1c1.1-1.1,1.7-2.6,1.5-4.2c1.5,0.2,3-0.4,4.1-1.4
			C72.9,92.6,72.9,89.3,70.9,87.3C70.9,87.3,70.9,87.3,70.9,87.3z"/>
		<linearGradient id="SVGID_9_" gradientUnits="userSpaceOnUse" x1="58.7527" y1="132.2019" x2="72.5135" y2="132.2019">
			<stop  offset="0" style="stop-color:#F4AC9C"/>
			<stop  offset="1" style="stop-color:#FFF1CF;stop-opacity:0.3"/>
		</linearGradient>
		<path class="st8" d="M72.2,136.4c-0.5,1.1-1.7,1.8-2.9,1.6c-2-0.1-2-2.1-4.6-3.3c-2.5-1.1-3.7-0.2-4.9-1.5c-1.2-1-1.4-2.7-0.6-3.9
			c1-1.7,3.1-0.9,5.3-2.2c1.4-0.9,3.2-0.9,4.7-0.2c1.5,0.9,2.5,2.6,2.4,4.3C71.4,133.8,73.2,134.8,72.2,136.4z"/>
		<linearGradient id="SVGID_10_" gradientUnits="userSpaceOnUse" x1="65.2113" y1="121.3048" x2="71.1223" y2="121.3048">
			<stop  offset="0" style="stop-color:#F4AC9C"/>
			<stop  offset="1" style="stop-color:#FFF1CF;stop-opacity:0.3"/>
		</linearGradient>
		<path class="st9" d="M65.5,120.4c0.7-2.1,2.5-3.3,4-2.8c1.5,0.5,2,2.6,1.3,4.7c-0.7,2.1-2.5,3.3-4,2.8
			C65.4,124.5,64.8,122.4,65.5,120.4z"/>
		<linearGradient id="SVGID_11_" gradientUnits="userSpaceOnUse" x1="59.6076" y1="124.2479" x2="64.1267" y2="124.2479">
			<stop  offset="0" style="stop-color:#F4AC9C"/>
			<stop  offset="1" style="stop-color:#FFF1CF;stop-opacity:0.3"/>
		</linearGradient>
		<path class="st10" d="M59.7,123.7c0.4-1.8,1.7-3,2.9-2.7s1.8,2,1.4,3.7c-0.4,1.8-1.7,3-2.9,2.7C59.9,127.2,59.3,125.5,59.7,123.7z
			"/>
		<linearGradient id="SVGID_12_" gradientUnits="userSpaceOnUse" x1="70.8848" y1="124.7179" x2="77.4413" y2="124.7179">
			<stop  offset="0" style="stop-color:#F4AC9C"/>
			<stop  offset="1" style="stop-color:#FFF1CF;stop-opacity:0.3"/>
		</linearGradient>
		<path class="st11" d="M71.9,123c1.3-1.7,3.4-2.4,4.6-1.4c1.2,0.9,1.1,3.1-0.2,4.8c-1.3,1.7-3.4,2.4-4.6,1.4
			C70.5,126.9,70.6,124.7,71.9,123z"/>
		<linearGradient id="SVGID_13_" gradientUnits="userSpaceOnUse" x1="73.5075" y1="131.5226" x2="79.6889" y2="131.5226">
			<stop  offset="0" style="stop-color:#F4AC9C"/>
			<stop  offset="1" style="stop-color:#FFF1CF;stop-opacity:0.3"/>
		</linearGradient>
		<path class="st12" d="M75.5,129.6c1.6-1,3.4-0.9,4,0.1c0.6,1-0.1,2.7-1.7,3.6c-1.6,1-3.4,0.9-4-0.1
			C73.1,132.2,73.9,130.6,75.5,129.6z"/>
		<linearGradient id="SVGID_14_" gradientUnits="userSpaceOnUse" x1="5.3505" y1="118.586" x2="36.3451" y2="118.586">
			<stop  offset="0" style="stop-color:#F4AC9C"/>
			<stop  offset="1" style="stop-color:#FFF1CF;stop-opacity:0.3"/>
		</linearGradient>
		<path class="st13" d="M36.3,111.2c-0.7-5.5-4.5-9.2-9.3-7.9c-3.8,1.1-6.5,4.7-6.5,8.7c-2-3.5-6-5.2-9.9-4.4
			c-4.8,1.3-6.4,6.4-4.2,11.4c2.7,6.5,19.4,14.7,19.4,14.7l0.6,0.3l0.4-0.5C26.6,133.6,37.3,119.2,36.3,111.2z"/>
		<linearGradient id="SVGID_15_" gradientUnits="userSpaceOnUse" x1="79.4413" y1="69.416" x2="102.3037" y2="69.416">
			<stop  offset="0" style="stop-color:#F4AC9C"/>
			<stop  offset="1" style="stop-color:#FFF1CF;stop-opacity:0.3"/>
		</linearGradient>
		<path class="st14" d="M101.4,70.7c1.7-3.7,0.8-7.5-2.7-8.7c-2.9-0.8-5.9,0.3-7.6,2.8c0.1-3-1.7-5.7-4.5-6.7
			c-3.5-1.1-6.5,1.4-7.2,5.5c-0.9,5.2,6.2,17,6.2,17L86,81l0.4-0.2C86.4,80.8,98.9,76.1,101.4,70.7z"/>
		<linearGradient id="SVGID_16_" gradientUnits="userSpaceOnUse" x1="102.9468" y1="112.8035" x2="144.2534" y2="112.8035">
			<stop  offset="0" style="stop-color:#F4AC9C"/>
			<stop  offset="1" style="stop-color:#FFF1CF;stop-opacity:0.3"/>
		</linearGradient>
		<path class="st15" d="M132.9,97.6c-2.5,1.3-3.4,4.4-2.1,6.9c0,0,0,0,0,0c0.1,0.1,0.1,0.2,0.2,0.3l-18.2,9.7c0-0.1-0.1-0.2-0.2-0.4
			c-1.2-2.6-4.2-3.7-6.8-2.6c-2.6,1.2-3.7,4.2-2.6,6.8c0.1,0.2,0.2,0.4,0.3,0.6c0.7,1.4,2,2.3,3.5,2.6c-1.1,2.6,0.2,5.6,2.8,6.7
			s5.6-0.2,6.7-2.8c0.6-1.4,0.5-3-0.2-4.4l18.1-9.7c1.3,2.5,4.4,3.5,6.9,2.2s3.5-4.4,2.2-6.9c-0.7-1.4-2-2.4-3.6-2.7
			c1.1-2.6-0.1-5.6-2.7-6.7C136,96.8,134.3,96.8,132.9,97.6L132.9,97.6z"/>
		<linearGradient id="SVGID_17_" gradientUnits="userSpaceOnUse" x1="121.1705" y1="66.7248" x2="135.9346" y2="66.7248">
			<stop  offset="0" style="stop-color:#F4AC9C"/>
			<stop  offset="1" style="stop-color:#FFF1CF;stop-opacity:0.3"/>
		</linearGradient>
		<path class="st16" d="M135.5,64.2c0.6,1.1,0.5,2.5-0.4,3.5c-1.3,1.6-3.1,0.4-5.7,1.9c-2.5,1.4-2.5,3-4.3,3.3
			c-1.6,0.4-3.2-0.5-3.7-2c-0.9-1.9,1.2-3.2,1.3-5.9c0.1-1.8,1.2-3.4,2.8-4.1c1.7-0.8,3.7-0.5,5.2,0.6
			C132.8,63.3,134.7,62.4,135.5,64.2z"/>
		<linearGradient id="SVGID_18_" gradientUnits="userSpaceOnUse" x1="116.8566" y1="58.4132" x2="123.6467" y2="58.4132">
			<stop  offset="0" style="stop-color:#F4AC9C"/>
			<stop  offset="1" style="stop-color:#FFF1CF;stop-opacity:0.3"/>
		</linearGradient>
		<path class="st17" d="M117.9,55c1.4-0.9,3.5-0.1,4.8,1.8c1.3,1.9,1.3,4.2-0.1,5.1c-1.4,0.9-3.5,0.1-4.8-1.8
			C116.5,58.2,116.5,55.9,117.9,55z"/>
		<linearGradient id="SVGID_19_" gradientUnits="userSpaceOnUse" x1="115.3882" y1="64.958" x2="121.1924" y2="64.958">
			<stop  offset="0" style="stop-color:#F4AC9C"/>
			<stop  offset="1" style="stop-color:#FFF1CF;stop-opacity:0.3"/>
		</linearGradient>
		<path class="st18" d="M116,62.3c1-0.8,2.8-0.3,4.1,1.1c1.3,1.5,1.5,3.3,0.6,4.2c-1,0.8-2.8,0.3-4.1-1.1S115,63.1,116,62.3z"/>
		<linearGradient id="SVGID_20_" gradientUnits="userSpaceOnUse" x1="123.6088" y1="55.3413" x2="129.7637" y2="55.3413">
			<stop  offset="0" style="stop-color:#F4AC9C"/>
			<stop  offset="1" style="stop-color:#FFF1CF;stop-opacity:0.3"/>
		</linearGradient>
		<path class="st19" d="M125.5,51.3c1.6-0.5,3.4,1,4,3.2c0.7,2.2-0.1,4.4-1.6,4.8c-1.6,0.5-3.4-1-4-3.2
			C123.2,54,123.9,51.8,125.5,51.3z"/>
		<linearGradient id="SVGID_21_" gradientUnits="userSpaceOnUse" x1="130.9826" y1="57.8138" x2="135.6228" y2="57.8138">
			<stop  offset="0" style="stop-color:#F4AC9C"/>
			<stop  offset="1" style="stop-color:#FFF1CF;stop-opacity:0.3"/>
		</linearGradient>
		<path class="st20" d="M131,57.6c0.2-1.9,1.3-3.4,2.6-3.3s2.2,1.8,2,3.7c-0.2,1.9-1.3,3.4-2.6,3.3C131.7,61.2,130.8,59.6,131,57.6z
			"/>
		<linearGradient id="SVGID_22_" gradientUnits="userSpaceOnUse" x1="29.0064" y1="155.7042" x2="55.2136" y2="155.7042">
			<stop  offset="0" style="stop-color:#F4AC9C"/>
			<stop  offset="1" style="stop-color:#FFF1CF;stop-opacity:0.3"/>
		</linearGradient>
		<path class="st21" d="M39,167.9c1.4-1.4,1.4-3.7,0-5.1c0,0,0,0,0,0c-0.1-0.1-0.1-0.1-0.2-0.2L49,152.3l0.2,0.2
			c1.5,1.3,3.8,1.2,5.1-0.2c1.3-1.4,1.3-3.5,0-4.9c-0.8-0.8-1.8-1.1-2.9-1c0.2-2-1.3-3.7-3.2-3.9c-2-0.2-3.7,1.3-3.9,3.2
			c-0.1,1.1,0.3,2.1,1,2.9L35,158.8c-1.5-1.3-3.8-1.2-5.1,0.2c-1.3,1.4-1.3,3.5,0,4.9c0.8,0.8,1.8,1.1,2.9,1c-0.2,2,1.2,3.7,3.2,3.9
			C37.1,169,38.2,168.6,39,167.9L39,167.9z"/>
		<linearGradient id="SVGID_23_" gradientUnits="userSpaceOnUse" x1="78.1486" y1="164.9398" x2="94.2483" y2="164.9398">
			<stop  offset="0" style="stop-color:#F4AC9C"/>
			<stop  offset="1" style="stop-color:#FFF1CF;stop-opacity:0.3"/>
		</linearGradient>
		<path class="st22" d="M94.2,161.1c-0.4-2.9-2.3-4.8-4.8-4.1c-2,0.6-3.4,2.4-3.4,4.5c-1-1.8-3.1-2.7-5.2-2.3
			c-2.5,0.7-3.3,3.3-2.2,6c1.4,3.4,10.1,7.7,10.1,7.7L89,173l0.2-0.3C89.2,172.7,94.8,165.3,94.2,161.1z"/>
		<linearGradient id="SVGID_24_" gradientUnits="userSpaceOnUse" x1="120.1486" y1="27.9398" x2="136.2483" y2="27.9398">
			<stop  offset="0" style="stop-color:#F4AC9C"/>
			<stop  offset="1" style="stop-color:#FFF1CF;stop-opacity:0.3"/>
		</linearGradient>
		<path class="st23" d="M136.2,24.1c-0.4-2.9-2.3-4.8-4.8-4.1c-2,0.6-3.4,2.4-3.4,4.5c-1-1.8-3.1-2.7-5.2-2.3
			c-2.5,0.7-3.3,3.3-2.2,6c1.4,3.4,10.1,7.7,10.1,7.7L131,36l0.2-0.3C131.2,35.7,136.8,28.3,136.2,24.1z"/>
		<linearGradient id="SVGID_25_" gradientUnits="userSpaceOnUse" x1="114.5522" y1="156.7154" x2="130.2728" y2="156.7154">
			<stop  offset="0" style="stop-color:#F4AC9C"/>
			<stop  offset="1" style="stop-color:#FFF1CF;stop-opacity:0.3"/>
		</linearGradient>
		<path class="st24" d="M129.7,162.5c-0.8,1.2-2.4,1.8-3.8,1.4c-2.3-0.5-2-2.9-4.9-4.8c-2.8-1.8-4.4-1-5.6-2.7
			c-1.2-1.4-1.2-3.5,0.1-4.8c1.5-1.9,3.9-0.5,6.7-1.7c1.9-0.8,4-0.5,5.7,0.7c1.7,1.4,2.5,3.5,2.1,5.6
			C129.2,159.2,131.2,160.7,129.7,162.5z"/>
		<linearGradient id="SVGID_26_" gradientUnits="userSpaceOnUse" x1="123.9893" y1="143.8551" x2="131.5143" y2="143.8551">
			<stop  offset="0" style="stop-color:#F4AC9C"/>
			<stop  offset="1" style="stop-color:#FFF1CF;stop-opacity:0.3"/>
		</linearGradient>
		<path class="st25" d="M124.8,142.2c1.3-2.3,3.6-3.5,5.3-2.6s1.9,3.5,0.7,5.8c-1.3,2.3-3.6,3.5-5.3,2.6S123.5,144.5,124.8,142.2z"
			/>
		<linearGradient id="SVGID_27_" gradientUnits="userSpaceOnUse" x1="117.1577" y1="145.2391" x2="122.9327" y2="145.2391">
			<stop  offset="0" style="stop-color:#F4AC9C"/>
			<stop  offset="1" style="stop-color:#FFF1CF;stop-opacity:0.3"/>
		</linearGradient>
		<path class="st26" d="M117.6,144.2c0.8-2.1,2.6-3.3,4-2.8c1.4,0.5,1.8,2.7,0.9,4.7c-0.8,2.1-2.6,3.3-4,2.8
			S116.8,146.3,117.6,144.2z"/>
		<linearGradient id="SVGID_28_" gradientUnits="userSpaceOnUse" x1="130.0294" y1="148.8719" x2="138.4064" y2="148.8719">
			<stop  offset="0" style="stop-color:#F4AC9C"/>
			<stop  offset="1" style="stop-color:#FFF1CF;stop-opacity:0.3"/>
		</linearGradient>
		<path class="st27" d="M131.9,146.4c1.9-1.8,4.5-2.2,5.8-0.8c1.3,1.4,0.8,3.9-1.2,5.8c-1.9,1.8-4.5,2.2-5.8,0.8
			C129.5,150.8,130,148.2,131.9,146.4z"/>
		<linearGradient id="SVGID_29_" gradientUnits="userSpaceOnUse" x1="131.2411" y1="156.917" x2="139.0029" y2="156.917">
			<stop  offset="0" style="stop-color:#F4AC9C"/>
			<stop  offset="1" style="stop-color:#FFF1CF;stop-opacity:0.3"/>
		</linearGradient>
		<path class="st28" d="M134.1,154.5c2.1-0.8,4.2-0.4,4.8,0.9s-0.7,3.1-2.7,4c-2.1,0.8-4.2,0.4-4.8-0.9
			C130.8,157.1,132,155.3,134.1,154.5z"/>
	</g>
</g>
</svg>
