<svg width="41" height="40" viewBox="0 0 41 40" fill="none" xmlns="http://www.w3.org/2000/svg">
<path d="M20.0165 -3.8837e-07C14.5808 -2.82904e-07 13.8987 0.0237429 11.7637 0.120832C9.63299 0.218329 8.17858 0.555416 6.90595 1.05002C5.58957 1.56084 4.4729 2.24417 3.36041 3.35624C2.2471 4.46793 1.56324 5.58375 1.05037 6.89875C0.554155 8.17084 0.216397 9.62458 0.120508 11.7529C0.0250255 13.8862 2.82662e-07 14.5683 3.88049e-07 20C4.93437e-07 25.4317 0.0241914 26.1112 0.120915 28.2446C0.21892 30.3737 0.556252 31.8271 1.05077 33.0988C1.56241 34.4142 2.24625 35.53 3.35915 36.6417C4.47125 37.7542 5.5879 38.4392 6.90345 38.95C8.17689 39.4446 9.63175 39.7817 11.7621 39.8792C13.897 39.9762 14.5787 40 20.014 40C25.4502 40 26.1302 39.9763 28.2652 39.8792C30.3959 39.7817 31.852 39.4446 33.1254 38.95C34.4414 38.4392 35.5564 37.7542 36.6685 36.6417C37.7818 35.53 38.4657 34.4142 38.9785 33.0992C39.4706 31.8271 39.8083 30.3733 39.9084 28.245C40.0043 26.1117 40.0293 25.4317 40.0293 20C40.0293 14.5683 40.0043 13.8867 39.9084 11.7533C39.8083 9.62416 39.4706 8.17084 38.9785 6.89918C38.4657 5.58375 37.7818 4.46791 36.6685 3.35624C35.5552 2.24374 34.4418 1.56041 33.1242 1.05C31.8482 0.555416 30.393 0.218329 28.2623 0.120832C26.1273 0.0237426 25.4476 -4.93747e-07 20.0103 -3.88249e-07L20.0165 -3.8837e-07ZM18.221 3.60417C18.7539 3.60334 19.3485 3.60417 20.0165 3.60417C25.3605 3.60417 25.9939 3.62334 28.1042 3.71917C30.0557 3.80834 31.1148 4.13416 31.8203 4.40791C32.7543 4.77041 33.4202 5.20375 34.1203 5.90374C34.8209 6.60376 35.2545 7.27042 35.6181 8.20374C35.8921 8.90791 36.2186 9.96625 36.3074 11.9163C36.4033 14.0246 36.4241 14.6579 36.4241 19.9954C36.4241 25.3329 36.4033 25.9663 36.3074 28.0746C36.2181 30.0246 35.8921 31.0829 35.6181 31.7871C35.2554 32.7204 34.8209 33.385 34.1203 34.0846C33.4198 34.7846 32.7547 35.2179 31.8203 35.5804C31.1156 35.8554 30.0557 36.1804 28.1042 36.2696C25.9943 36.3654 25.3605 36.3862 20.0165 36.3862C14.6721 36.3862 14.0388 36.3654 11.9289 36.2696C9.97742 36.1796 8.91831 35.8538 8.21235 35.58C7.27832 35.2175 6.61115 34.7842 5.91065 34.0842C5.21012 33.3842 4.77648 32.7192 4.41286 31.7854C4.1389 31.0813 3.81242 30.0229 3.72361 28.0729C3.6277 25.9646 3.60851 25.3313 3.60851 19.9904C3.60851 14.6496 3.6277 14.0196 3.72361 11.9113C3.81284 9.96124 4.1389 8.90292 4.41286 8.19792C4.77562 7.26459 5.21012 6.59792 5.91064 5.89793C6.61115 5.19791 7.27832 4.76459 8.21235 4.40126C8.91788 4.12625 9.97742 3.80126 11.9289 3.71166C13.7752 3.62833 14.4908 3.60334 18.221 3.59915L18.221 3.60417ZM30.7003 6.925C29.3743 6.925 28.2985 7.99876 28.2985 9.32416C28.2985 10.6492 29.3743 11.7242 30.7003 11.7242C32.0263 11.7242 33.1021 10.6492 33.1021 9.32416C33.1021 7.99917 32.0263 6.92418 30.7003 6.92418L30.7003 6.925ZM20.0165 9.72916C14.3402 9.72916 9.73808 14.3279 9.73808 20C9.73808 25.6721 14.3402 30.2687 20.0165 30.2687C25.6928 30.2687 30.2933 25.6721 30.2933 20C30.2933 14.3279 25.6924 9.72916 20.0161 9.72916L20.0165 9.72916ZM20.0165 13.3333C23.7009 13.3333 26.6882 16.3179 26.6882 20C26.6882 23.6817 23.7009 26.6667 20.0165 26.6667C16.3317 26.6667 13.3449 23.6817 13.3449 20C13.3449 16.3179 16.3317 13.3333 20.0165 13.3333Z" fill="white"/>
</svg>
