<svg width="494" height="281" viewBox="0 0 494 281" fill="none" xmlns="http://www.w3.org/2000/svg">
<path d="M278.263 140.083C278.263 217.45 215.972 280.172 139.129 280.172C62.2866 280.172 0 217.469 0 140.083C0 62.6976 62.2913 0 139.129 0C215.967 0 278.263 62.7165 278.263 140.083ZM430.894 140.083C430.894 212.915 399.746 271.951 361.328 271.951C322.909 271.951 291.761 212.896 291.761 140.083C291.761 67.2709 322.909 8.21575 361.328 8.21575C399.746 8.21575 430.894 67.2709 430.894 140.083ZM493.323 140.083C493.323 205.337 482.367 258.231 468.855 258.231C455.343 258.231 444.387 205.318 444.387 140.083C444.387 74.8488 455.343 21.9354 468.86 21.9354C482.376 21.9354 493.323 74.8346 493.323 140.083Z" fill="#422006"/>
</svg>
