<svg width="16" height="16" viewBox="0 0 16 16" fill="none" xmlns="http://www.w3.org/2000/svg">
<path d="M14.3967 0.971664C14.1329 0.883522 13.8872 0.947264 13.7651 0.982738C13.632 1.0214 13.4734 1.08333 13.3143 1.14546L2.00953 5.55706C1.83164 5.62645 1.65934 5.69367 1.52635 5.75942C1.41145 5.81624 1.16722 5.94269 1.0309 6.2051C0.880566 6.49447 0.880768 6.83897 1.03144 7.12817C1.16808 7.39042 1.41245 7.51659 1.52742 7.57327C1.66048 7.63886 1.83283 7.70586 2.01079 7.77504L5.15747 8.99875C5.39222 9.09004 5.50959 9.13569 5.62636 9.13849C5.72957 9.14097 5.83195 9.11944 5.92542 9.0756C6.03117 9.02601 6.12023 8.93696 6.29833 8.75886L9.52859 5.52859C9.78894 5.26824 10.2111 5.26824 10.4714 5.52859C10.7318 5.78894 10.7318 6.21105 10.4714 6.4714L7.24113 9.70167C7.06303 9.87977 6.97398 9.96882 6.92439 10.0746C6.88055 10.168 6.85903 10.2704 6.8615 10.3736C6.86431 10.4904 6.90995 10.6078 7.00124 10.8425L8.22493 13.9892C8.29412 14.1671 8.36112 14.3395 8.42673 14.4726C8.48341 14.5875 8.60957 14.8319 8.87182 14.9685C9.16102 15.1192 9.50552 15.1194 9.79489 14.9691C10.0573 14.8328 10.1838 14.5885 10.2406 14.4736C10.3063 14.3407 10.3735 14.1684 10.4429 13.9905L14.8545 2.68574C14.9167 2.5266 14.9786 2.36798 15.0173 2.23489C15.0527 2.11277 15.1165 1.86713 15.0283 1.60328C14.9287 1.30519 14.6948 1.07125 14.3967 0.971664Z" fill="#5F5F7A"/>
</svg>
