<svg width="40" height="33" viewBox="0 0 40 33" fill="none" xmlns="http://www.w3.org/2000/svg">
<path d="M12.5796 32.495C27.6746 32.495 35.9296 19.9945 35.9296 9.15449C35.9296 8.79949 35.9224 8.4461 35.9063 8.09418C37.5126 6.93242 38.8988 5.49397 40 3.84627C38.5295 4.49975 36.9472 4.93957 35.2872 5.13787C36.9815 4.12232 38.2823 2.51568 38.896 0.600588C37.285 1.55586 35.5226 2.22927 33.6848 2.5918C32.1872 0.997271 30.0552 -5.83145e-07 27.6944 -5.37339e-07C23.1624 -4.49407e-07 19.4872 3.67372 19.4872 8.20215C19.4872 8.84595 19.5593 9.47197 19.7002 10.0726C12.8794 9.72957 6.8313 6.46529 2.78358 1.50176C2.05454 2.75366 1.67108 4.17647 1.67236 5.62489C1.67236 8.47096 3.12114 10.9834 5.32439 12.4533C4.02114 12.4135 2.7465 12.0616 1.60764 11.4273C1.60642 11.4617 1.60642 11.4953 1.60642 11.5321C1.60642 15.5048 4.4352 18.8218 8.19033 19.5734C7.48506 19.7654 6.75731 19.8625 6.02634 19.8621C5.49846 19.8621 4.98398 19.8102 4.48398 19.7142C5.52878 22.9736 8.55837 25.3455 12.1503 25.4118C9.34146 27.6125 5.80317 28.9232 1.95756 28.9232C1.30337 28.9238 0.649722 28.8858 5.58977e-07 28.8096C3.63203 31.1366 7.94472 32.4944 12.58 32.4944" fill="#422006"/>
</svg>
